# AST/ASF file generated using VICON BodyLanguage
# -----------------------------------------------
:version 1.10
:name VICON
:units
  mass 1.0
  length 0.45
  angle deg
:documentation
   .ast/.asf automatically generated from VICON data using
   VICON BodyBuilder and BodyLanguage model FoxedUp or BRILLIANT.MOD
:root
   order TX TY TZ RX RY RZ
   axis XYZ
   position 0 0 0  
   orientation 0 0 0 
:bonedata
  begin
     id 1 
     name lhipjoint
     direction 0.610259 -0.730986 0.305356 
     length 2.50941 
     axis 0 0 0  XYZ
  end
  begin
     id 2 
     name lfemur
     direction 0.34202 -0.939693 0  
     length 7.48822  
     axis 0 0 20  XYZ
    dof rx ry rz
    limits (-160.0 20.0)
           (-70.0 70.0)
           (-60.0 70.0)
  end
  begin
     id 3 
     name ltibia
     direction 0.34202 -0.939693 0   
     length 7.60141   
     axis 0 0 20   XYZ
    dof rx
    limits (-10.0 170.0)
  end
  begin
     id 4 
     name lfoot
     direction 0.0673488 -0.185039 0.980421   
     length 2.04049   
     axis -90 7.62852e-016 20   XYZ
    dof rx rz
    limits (-45.0 90.0)
           (-70.0 20.0)
  end
  begin
     id 5 
     name ltoes
     direction 1.5356e-011 -4.21729e-011 1   
     length 1.02897   
     axis -90 7.62852e-016 20   XYZ
    dof rx
    limits (-90.0 20.0)
  end
  begin
     id 6 
     name rhipjoint
     direction -0.57612 -0.754205 0.315056   
     length 2.43216  
     axis 0 0 0  XYZ 
  end
  begin
     id 7 
     name rfemur
     direction -0.34202 -0.939693 0   
     length 7.42799   
     axis 0 0 -20   XYZ
    dof rx ry rz
    limits (-160.0 20.0)
           (-70.0 70.0)
           (-70.0 60.0)
  end
  begin
     id 8 
     name rtibia
     direction -0.34202 -0.939693 0   
     length 7.69484   
     axis 0 0 -20   XYZ
    dof rx
    limits (-10.0 170.0)
 end
 begin
     id 9 
     name rfoot
     direction -0.111837 -0.30727 0.945028   
     length 2.15769  
     axis -90 -7.62852e-016 -20   XYZ
    dof rx rz
    limits (-45.0 90.0)
           (-20.0 70.0)
  end
  begin
     id 10 
     name rtoes
     direction -1.53539e-011 -4.21878e-011 1   
     length 1.07391   
     axis -90 -7.62852e-016 -20   XYZ
    dof rx
    limits (-90.0 20.0)
  end
  begin
     id 11 
     name lowerback
     direction 0.00552624 0.990109 -0.140195   
     length 2.12403   
     axis 0 0 0   XYZ
    dof rx ry rz
    limits (-20.0 45.0)
           (-30.0 30.0)
           (-30.0 30.0)
  end
  begin
     id 12 
     name upperback
     direction 0.00361898 0.999976 -0.00584723   
     length 2.13232   
     axis 0 0 0   XYZ
    dof rx ry rz
    limits (-20.0 45.0)
           (-30.0 30.0)
           (-30.0 30.0)
  end
  begin
     id 13 
     name thorax
     direction -0.000331275 0.998253 0.0590847   
     length 2.17688   
     axis 0 0 0   XYZ
    dof rx ry rz
    limits (-20.0 45.0)
           (-30.0 30.0)
           (-30.0 30.0)
  end
  begin
     id 14 
     name lowerneck
     direction -0.0561561 0.979832 0.19177   
     length 1.64159   
     axis 0 0 0   XYZ
    dof rx ry rz
    limits (-20.0 45.0)
           (-30.0 30.0)
           (-30.0 30.0)
  end
  begin
     id 15 
     name upperneck
     direction 0.0827153 0.979385 -0.184293   
     length 1.68939   
     axis 0 0 0   XYZ
    dof rx ry rz
    limits (-20.0 45.0)
           (-30.0 30.0)
           (-30.0 30.0)
  end
  begin
     id 16
     name head
     direction 0.0278583 0.995936 -0.0856488  
     length 1.70207  
     axis 0 0 0   XYZ
    dof rx ry rz
    limits (-20.0 45.0)
           (-30.0 30.0)
           (-30.0 30.0)
  end
  begin
     id 17 
     name lclavicle
     direction 0.950993 0.301131 -0.0702275  
     length 3.41652  
     axis 0 0 0   XYZ
    dof ry rz
    limits (-20.0 10.0)
           (0.0 20.0)
  end
  begin
     id 18 
     name lhumerus
     direction 1 -4.48981e-011 -3.9662e-029   
     length 5.32955   
     axis 180 -30 -90   XYZ
    dof rx ry rz
    limits (-60.0 90.0)
           (-90.0 90.0)
           (-90.0 90.0)
  end
  begin
     id 19
     name lradius
     direction 1 -4.48925e-011 -9.0549e-027   
     length 3.69232   
     axis 180 -30 -90   XYZ
    dof rx
    limits (-10.0 170.0)
  end
  begin
     id 20
     name lwrist
     direction 1 -4.49007e-011 -1.49005e-026   
     length 1.84616   
     axis 9.0955e-015 90 90   XYZ
    dof ry
    limits (-180.0 0.0)
 end
  begin
     id 21 
     name lhand
     direction 1 -4.49016e-011 -2.98023e-026   
     length 0.536598   
     axis 1.90115e-014 90 90   XYZ
    dof rx rz
    limits (-90.0 90.0)
           (-45.0 45.0)
  end
  begin
     id 22 
     name lfingers
     direction 1 -4.48924e-011 -5.9578e-026   
     length 0.432619   
     axis 3.80223e-014 90 90   XYZ
    dof rx
    limits (0.0 90.0)
  end
  begin
     id 23
     name lthumb
     direction 0.707107 -6.34947e-011 0.707107   
     length 0.621157   
     axis -90 45 -3.84942e-014   XYZ
    dof rx rz
    limits (-45.0 45.0)
           (-45.0 45.0)
  end
  begin
     id 24 
     name rclavicle
     direction -0.955495 0.276497 -0.102848   
     length 3.36357  
     axis 0 0 0   XYZ 
    dof ry rz
    limits (-10.0 20.0)
           (-20.0 0.0)
  end
  begin
     id 25 
     name rhumerus
     direction -1 -4.48961e-011 3.30983e-027  
     length 5.23431   
     axis 180 30 90   XYZ
    dof rx ry rz
    limits (-90.0 60.0)
           (-90.0 90.0)
           (-90.0 90.0)
  end
  begin
     id 26 
     name rradius
     direction -1 -4.48965e-011 -6.63263e-027   
     length 3.55301   
     axis 180 30 90   XYZ
    dof rx
    limits (-10.0 170.0)
  end
  begin
     id 27 
     name rwrist
     direction -1 -4.48942e-011 -1.48958e-026   
     length 1.77651   
     axis 9.0955e-015 -90 -90   XYZ
    dof ry
    limits (-180.0 0.0)
  end
  begin
     id 28
     name rhand
     direction -1 -4.48977e-011 -2.97966e-026   
     length 0.772522   
     axis 1.90115e-014 -90 -90   XYZ
    dof rx rz
    limits (-90.0 90.0)
           (-45.0 45.0)
  end
  begin
     id 29
     name rfingers
     direction -1 -4.49135e-011 -5.96389e-026   
     length 0.622827   
     axis 3.80223e-014 -90 -90   XYZ
    dof rx
    limits (0.0 90.0)
  end
  begin
     id 30
     name rthumb
     direction -0.707107 -6.34969e-011 0.707107   
     length 0.894259   
     axis -90 -45 3.84942e-014   XYZ
    dof rx rz
    limits (-45.0 45.0)
           (-45.0 45.0)
  end
:hierarchy
  begin
    root lhipjoint rhipjoint lowerback
    lhipjoint lfemur
    lfemur ltibia
    ltibia lfoot
    lfoot ltoes
    rhipjoint rfemur
    rfemur rtibia
    rtibia rfoot
    rfoot rtoes
    lowerback upperback
    upperback thorax
    thorax lowerneck lclavicle rclavicle
    lowerneck upperneck
    upperneck head
    lclavicle lhumerus
    lhumerus lradius
    lradius lwrist
    lwrist lhand lthumb
    lhand lfingers
    rclavicle rhumerus
    rhumerus rradius
    rradius rwrist
    rwrist rhand rthumb
    rhand rfingers
  end

#!OML:ASF F:\VICON\USERDATA\INSTALL\rory3\rory3.ASF
:FULLY-SPECIFIED
:DEGREES
49
root 11.8256 17.7993 -15.8037 -1.36308 3.81305 4.99763
lowerback 11.3125 -1.05086 -4.6594
upperback 2.148 -1.96869 -0.562803
thorax -3.9541 -0.921068 2.32003
lowerneck -20.0918 -7.21338 -13.6519
upperneck 24.6068 -8.64746 10.0338
head 12.5856 -3.89457 4.63772
rclavicle -9.7653e-015 -1.74931e-014
rhumerus -36.5919 -12.6284 -79.53
rradius 31.7759
rwrist 6.04802
rhand -14.796 7.8382
rfingers 7.12502
rthumb 11.3615 -21.834
lclavicle -9.7653e-015 -1.74931e-014
lhumerus -27.4554 -5.52366 83.6779
lradius 42.4321
lwrist -2.67041
lhand -15.237 26.2055
lfingers 7.12502
lthumb 10.9362 55.9007
rfemur -27.4652 -2.29249 15.617
rtibia 29.6263
rfoot -7.54293 -5.56132
rtoes -0.519209
lfemur 9.35966 -0.496972 -29.355
ltibia 7.12553
lfoot -9.9793 -8.94195
ltoes -6.75239
50
root 11.8192 17.7933 -15.6795 -1.37098 3.88524 5.02781
lowerback 11.1584 -1.05414 -4.71508
upperback 2.21351 -1.9674 -0.535948
thorax -3.79748 -0.92478 2.37345
lowerneck -20.0053 -7.22884 -13.7027
upperneck 24.4615 -8.65951 10.0571
head 12.5163 -3.90329 4.65
rclavicle -3.13086e-015 1.66979e-014
rhumerus -36.7169 -12.5588 -79.4802
rradius 31.9202
rwrist 5.77737
rhand -15.1702 7.21394
rfingers 7.12502
rthumb 11.0006 -22.4778
lclavicle -3.13086e-015 1.66979e-014
lhumerus -27.1605 -5.97938 83.7745
lradius 42.5158
lwrist -2.80217
lhand -15.106 25.7056
lfingers 7.12502
lthumb 11.0625 55.3941
rfemur -27.339 -2.03088 15.5409
rtibia 27.7459
rfoot -7.5907 -5.37068
rtoes -2.41716
lfemur 10.6053 -0.653881 -29.3632
ltibia 5.5984
lfoot -9.42435 -9.00495
ltoes -6.11422
51
root 11.8096 17.7864 -15.5548 -1.35499 3.97883 5.04502
lowerback 11.0196 -1.06994 -4.80152
upperback 2.20955 -1.9893 -0.506972
thorax -3.71916 -0.936646 2.45112
lowerneck -19.8364 -7.2107 -13.6897
upperneck 24.4231 -8.66066 10.0633
head 12.4669 -3.90659 4.65151
rclavicle -1.27719e-014 7.15625e-015
rhumerus -36.9517 -12.6302 -79.3863
rradius 31.9643
rwrist 5.78915
rhand -15.4622 6.77091
rfingers 7.12502
rthumb 10.719 -22.9356
lclavicle -1.27719e-014 7.15625e-015
lhumerus -26.9821 -6.45346 83.8529
lradius 42.6763
lwrist -2.59232
lhand -15.2151 25.9448
lfingers 7.12502
lthumb 10.9573 55.6388
rfemur -27.2237 -1.74927 15.4882
rtibia 26.0605
rfoot -7.91669 -5.24661
rtoes -3.91463
lfemur 12.1012 -0.839486 -29.3457
ltibia 3.49291
lfoot -8.56994 -9.14103
ltoes -5.78807
52
root 11.8005 17.7811 -15.4311 -1.38682 4.07098 5.06089
lowerback 11.0425 -1.0795 -4.83334
upperback 2.17649 -2.0078 -0.500954
thorax -3.76366 -0.943728 2.47904
lowerneck -19.7884 -7.21876 -13.5401
upperneck 24.5016 -8.69133 9.91419
head 12.4765 -3.92629 4.56474
rclavicle -3.42904e-015 -6.16232e-015
rhumerus -37.1497 -12.8585 -79.2501
rradius 31.8834
rwrist 5.99468
rhand -15.3759 6.75329
rfingers 7.12502
rthumb 10.8022 -22.9489
lclavicle -3.42904e-015 -6.16232e-015
lhumerus -26.9207 -6.99831 83.9395
lradius 42.9625
lwrist -2.34348
lhand -15.3495 26.415
lfingers 7.12502
lthumb 10.8276 56.1159
rfemur -27.0836 -1.44375 15.4431
rtibia 24.5562
rfoot -8.33501 -5.14757
rtoes -3.93683
lfemur 14.3356 -1.0103 -29.3721
ltibia -1.11319e-014
lfoot -7.0597 -9.35049
ltoes -6.31428
53
root 11.7923 17.7771 -15.3093 -1.34648 4.14286 5.07919
lowerback 11.0194 -1.10476 -4.86588
upperback 2.15047 -2.04349 -0.476364
thorax -3.77327 -0.960288 2.52754
lowerneck -19.8128 -7.25621 -13.4678
upperneck 24.5046 -8.73355 9.8039
head 12.4787 -3.95095 4.50072
rclavicle 3.65764e-014 -1.47101e-014
rhumerus -37.2412 -12.9096 -79.1433
rradius 31.7531
rwrist 6.1506
rhand -15.3134 7.19402
rfingers 7.12502
rthumb 10.8625 -22.505
lclavicle 3.65764e-014 -1.47101e-014
lhumerus -26.7776 -7.30638 83.9821
lradius 43.115
lwrist -2.28079
lhand -15.4677 26.8468
lfingers 7.12502
lthumb 10.7136 56.5536
rfemur -27.066 -1.07177 15.3614
rtibia 23.221
rfoot -8.7391 -5.06726
rtoes -4.23153
lfemur 14.7262 -1.17419 -29.3779
ltibia 2.70347e-014
lfoot -7.17218 -9.20792
ltoes -6.9895
54
root 11.7852 17.7692 -15.1823 -1.27656 4.15238 5.10388
lowerback 10.9287 -1.11962 -4.91772
upperback 2.10507 -2.06463 -0.456176
thorax -3.76632 -0.969626 2.57857
lowerneck -19.9351 -7.24468 -13.357
upperneck 24.649 -8.71202 9.68069
head 12.5446 -3.94343 4.43964
rclavicle 2.09718e-014 -4.96962e-015
rhumerus -37.4021 -12.853 -79.0575
rradius 31.7136
rwrist 6.25487
rhand -15.1056 7.4407
rfingers 7.12502
rthumb 11.0629 -22.2477
lclavicle 2.09718e-014 -4.96962e-015
lhumerus -26.6389 -7.42462 83.9811
lradius 43.1337
lwrist -2.41861
lhand -15.3595 27.4468
lfingers 7.12502
lthumb 10.818 57.1482
rfemur -27.1111 -0.78109 15.3186
rtibia 22.0796
rfoot -8.92698 -4.92055
rtoes -5.63486
lfemur 15.1013 -1.2827 -29.3808
ltibia -2.38542e-014
lfoot -7.17687 -9.09138
ltoes -7.07445
55
root 11.7764 17.7603 -15.0543 -1.28163 4.17838 5.10408
lowerback 10.8665 -1.11203 -4.91017
upperback 2.12834 -2.04856 -0.439749
thorax -3.7085 -0.96367 2.58695
lowerneck -20.0543 -7.25369 -13.3999
upperneck 24.7301 -8.71355 9.72428
head 12.606 -3.93974 4.46425
rclavicle 1.32192e-014 -1.25234e-014
rhumerus -37.4479 -12.9477 -78.9814
rradius 31.629
rwrist 6.26836
rhand -15.0295 7.37733
rfingers 7.12502
rthumb 11.1363 -22.3072
lclavicle 1.32192e-014 -1.25234e-014
lhumerus -26.3891 -7.66187 84.0289
lradius 43.1642
lwrist -2.48401
lhand -15.1631 27.797
lfingers 7.12502
lthumb 11.0075 57.4884
rfemur -26.9972 -0.531874 15.3346
rtibia 21.0588
rfoot -8.85992 -4.80995
rtoes -7.53296
lfemur 15.5576 -1.39625 -29.3617
ltibia 2.38542e-014
lfoot -7.31233 -8.96135
ltoes -8.56413
56
root 11.7676 17.7526 -14.9326 -1.22025 4.38711 5.17171
lowerback 10.7816 -1.17087 -4.96267
upperback 2.18305 -2.12545 -0.441584
thorax -3.59631 -1.00512 2.62087
lowerneck -20.1232 -7.26017 -13.477
upperneck 24.6661 -8.73292 9.89325
head 12.6106 -3.93221 4.53773
rclavicle -1.80894e-014 1.15295e-014
rhumerus -37.3586 -13.1729 -78.9024
rradius 31.4487
rwrist 6.35261
rhand -14.8888 7.35228
rfingers 7.12502
rthumb 11.272 -22.3249
lclavicle -1.80894e-014 1.15295e-014
lhumerus -26.0357 -7.92781 84.1116
lradius 43.1846
lwrist -2.37211
lhand -15.357 27.7567
lfingers 7.12502
lthumb 10.8204 57.458
rfemur -26.8246 -0.488982 15.2917
rtibia 20.0877
rfoot -8.80126 -5.06401
rtoes -10.6131
lfemur 15.9454 -1.69619 -29.4258
ltibia -3.97569e-014
lfoot -7.51049 -8.83806
ltoes -10.0382
57
root 11.7598 17.7543 -14.8115 -1.07802 4.58288 5.23807
lowerback 10.7006 -1.22075 -4.98423
upperback 2.12505 -2.19155 -0.451102
thorax -3.60643 -1.03639 2.6301
lowerneck -20.0664 -7.26337 -13.4886
upperneck 24.607 -8.75958 9.96831
head 12.5842 -3.93713 4.56366
rclavicle 7.40473e-015 -7.95139e-015
rhumerus -37.4485 -13.4536 -78.7564
rradius 31.2572
rwrist 6.63024
rhand -14.9792 7.31672
rfingers 7.12502
rthumb 11.1848 -22.3652
lclavicle 7.40473e-015 -7.95139e-015
lhumerus -25.847 -8.01784 84.1977
lradius 43.1178
lwrist -2.35238
lhand -15.5225 27.4587
lfingers 7.12502
lthumb 10.6608 57.1683
rfemur -26.6704 -0.464485 15.2649
rtibia 19.2976
rfoot -8.8653 -5.29223
rtoes -11.1237
lfemur 16.1642 -1.99533 -29.4919
ltibia -1.59028e-014
lfoot -7.28817 -8.8155
ltoes -8.94366
58
root 11.752 17.767 -14.6869 -1.04596 4.53077 5.23952
lowerback 10.7364 -1.19226 -4.96442
upperback 2.02889 -2.15664 -0.438136
thorax -3.72988 -1.01431 2.63105
lowerneck -19.9931 -7.22599 -13.4329
upperneck 24.6867 -8.70666 9.8538
head 12.5842 -3.92525 4.52233
rclavicle 2.90723e-014 3.57812e-015
rhumerus -37.5672 -13.6589 -78.6213
rradius 30.9942
rwrist 6.90196
rhand -15.1292 7.01135
rfingers 7.12502
rthumb 11.0402 -22.6783
lclavicle 2.90723e-014 3.57812e-015
lhumerus -25.9376 -7.97186 84.2487
lradius 43.1587
lwrist -2.51353
lhand -15.4617 27.4517
lfingers 7.12502
lthumb 10.7195 57.1582
rfemur -26.4831 -0.55437 15.4408
rtibia 18.8335
rfoot -8.79896 -4.81748
rtoes -10.7356
lfemur 16.417 -2.03437 -29.4885
ltibia 4.29375e-014
lfoot -6.84715 -8.8368
ltoes -7.20921
59
root 11.743 17.7632 -14.5621 -1.09134 4.42657 5.23719
lowerback 10.8259 -1.17145 -4.97759
upperback 2.00655 -2.13526 -0.405659
thorax -3.80273 -1.0011 2.67288
lowerneck -20.0502 -7.21232 -13.4708
upperneck 24.8194 -8.66151 9.80314
head 12.6415 -3.91438 4.52006
rclavicle 1.91827e-014 -1.11319e-014
rhumerus -37.6357 -13.8168 -78.4862
rradius 30.808
rwrist 6.97229
rhand -15.159 6.92028
rfingers 7.12502
rthumb 11.0113 -22.7709
lclavicle 1.91827e-014 -1.11319e-014
lhumerus -25.9964 -8.03015 84.2823
lradius 43.3257
lwrist -2.46069
lhand -15.2325 27.4201
lfingers 7.12502
lthumb 10.9405 57.115
rfemur -26.2961 -0.862884 15.7356
rtibia 18.6153
rfoot -8.42952 -4.08192
rtoes -11.0208
lfemur 16.8585 -2.01173 -29.4733
ltibia 7.63333e-014
lfoot -6.84584 -8.75646
ltoes -8.41034
